<svg width="1024" height="1024" viewBox="0 0 1024 1024" fill="none" xmlns="http://www.w3.org/2000/svg">
<path d="M0 200C0 89.5431 89.5431 0 200 0H824C934.457 0 1024 89.5431 1024 200V824C1024 934.457 934.457 1024 824 1024H200C89.5431 1024 0 934.457 0 824V200Z" fill="black"/>
<path d="M378.667 244.333C344.545 244.333 310.422 231.308 284.372 205.295C258.322 179.244 245.333 145.122 245.333 111C245.333 145.122 232.308 179.244 206.295 205.295C180.244 231.345 146.122 244.333 112 244.333C146.122 244.333 180.244 257.358 206.295 283.372C232.345 309.422 245.333 343.544 245.333 377.667C245.333 343.544 258.358 309.422 284.372 283.372C310.422 257.358 344.545 244.333 378.667 244.333Z" fill="white"/>
<path d="M645.333 244.333C611.211 244.333 577.089 231.308 551.039 205.295C524.988 179.244 512 145.122 512 111C512 145.122 498.975 179.244 472.961 205.295C446.911 231.345 412.789 244.333 378.667 244.333C412.789 244.333 446.911 257.358 472.961 283.372C499.011 309.422 512 343.544 512 377.667C512 343.544 525.025 309.422 551.039 283.372C577.089 257.358 611.211 244.333 645.333 244.333Z" fill="white"/>
<path d="M912 244.333C877.878 244.333 843.756 231.308 817.706 205.295C791.656 179.244 778.667 145.122 778.667 111C778.667 145.122 765.642 179.244 739.628 205.295C713.578 231.345 679.455 244.333 645.333 244.333C679.455 244.333 713.578 257.358 739.628 283.372C765.679 309.422 778.667 343.544 778.667 377.667C778.667 343.544 791.692 309.422 817.706 283.372C843.756 257.358 877.878 244.333 912 244.333Z" fill="white"/>
<path d="M378.667 511C344.545 511 310.422 497.975 284.372 471.961C258.322 445.911 245.333 411.789 245.333 377.667C245.333 411.789 232.308 445.911 206.295 471.961C180.244 498.012 146.122 511 112 511C146.122 511 180.244 524.025 206.295 550.039C232.345 576.089 245.333 610.211 245.333 644.334C245.333 610.211 258.358 576.089 284.372 550.039C310.422 524.025 344.545 511 378.667 511Z" fill="white"/>
<path d="M378.667 778.667C344.545 778.667 310.422 765.642 284.372 739.628C258.322 713.578 245.333 679.456 245.333 645.333C245.333 679.456 232.308 713.578 206.295 739.628C180.244 765.678 146.122 778.667 112 778.667C146.122 778.667 180.244 791.692 206.295 817.705C232.345 843.756 245.333 877.878 245.333 912C245.333 877.878 258.358 843.756 284.372 817.705C310.422 791.692 344.545 778.667 378.667 778.667Z" fill="white"/>
<path d="M645.333 511C611.211 511 577.089 497.975 551.039 471.961C524.988 445.911 512 411.789 512 377.667C512 411.789 498.975 445.911 472.961 471.961C446.911 498.012 412.789 511 378.667 511C412.789 511 446.911 524.025 472.961 550.039C499.011 576.089 512 610.211 512 644.334C512 610.211 525.025 576.089 551.039 550.039C577.089 524.025 611.211 511 645.333 511Z" fill="white"/>
</svg>
